<?xml version="1.0" encoding="UTF-8" standalone="no"?>
<!-- Created with Inkscape (http://www.inkscape.org/) -->

<svg
   width="50.799999mm"
   height="128.5mm"
   viewBox="0 0 50.799999 128.5"
   version="1.1"
   id="svg1"
   inkscape:version="1.4 (86a8ad7, 2024-10-11)"
   inkscape:export-filename="C:\dev\vcv\MyPlugin\res\PolySlewOffset16.svg"
   inkscape:export-xdpi="96"
   inkscape:export-ydpi="96"
   xml:space="preserve"
   sodipodi:docname="PolySlewOffset16-v2-0-0.svg"
   xmlns:inkscape="http://www.inkscape.org/namespaces/inkscape"
   xmlns:sodipodi="http://sodipodi.sourceforge.net/DTD/sodipodi-0.dtd"
   xmlns="http://www.w3.org/2000/svg"
   xmlns:svg="http://www.w3.org/2000/svg"><sodipodi:namedview
     id="namedview1"
     pagecolor="#505050"
     bordercolor="#eeeeee"
     borderopacity="1"
     inkscape:showpageshadow="0"
     inkscape:pageopacity="0"
     inkscape:pagecheckerboard="0"
     inkscape:deskcolor="#505050"
     inkscape:document-units="mm"
     inkscape:zoom="5.6568543"
     inkscape:cx="95.989745"
     inkscape:cy="372.38011"
     inkscape:window-width="2560"
     inkscape:window-height="1417"
     inkscape:window-x="1912"
     inkscape:window-y="278"
     inkscape:window-maximized="1"
     inkscape:current-layer="layer1"><inkscape:page
       x="0"
       y="0"
       width="50.799999"
       height="128.5"
       id="page2"
       margin="0"
       bleed="0" /></sodipodi:namedview><defs
     id="defs1"><inkscape:path-effect
       effect="bspline"
       id="path-effect79"
       is_visible="true"
       lpeversion="1.3"
       weight="33.333333"
       steps="2"
       helper_size="0"
       apply_no_weight="true"
       apply_with_weight="true"
       only_selected="false"
       uniform="false" /><inkscape:path-effect
       effect="bspline"
       id="path-effect79-3"
       is_visible="true"
       lpeversion="1.3"
       weight="33.333333"
       steps="2"
       helper_size="0"
       apply_no_weight="true"
       apply_with_weight="true"
       only_selected="false"
       uniform="false" /><inkscape:path-effect
       effect="bspline"
       id="path-effect79-3-2"
       is_visible="true"
       lpeversion="1.3"
       weight="33.333333"
       steps="2"
       helper_size="0"
       apply_no_weight="true"
       apply_with_weight="true"
       only_selected="false"
       uniform="false" /><inkscape:path-effect
       effect="bspline"
       id="path-effect79-3-2-7"
       is_visible="true"
       lpeversion="1.3"
       weight="33.333333"
       steps="2"
       helper_size="0"
       apply_no_weight="true"
       apply_with_weight="true"
       only_selected="false"
       uniform="false" /></defs><g
     inkscape:label="bg"
     inkscape:groupmode="layer"
     id="layer1"
     style="display:inline"><path
       id="path19"
       style="display:inline;fill:#af6c34;fill-opacity:1;stroke-width:0.8;stroke-miterlimit:10"
       inkscape:label="Mid"
       d="m -2.9648931,-0.031367 v 0.0010335 L 11.237858,8.169166 25.438024,-0.02878318 39.638192,8.169166 53.834224,-0.02671612 V -0.031367 Z M 25.433374,16.368666 11.233207,24.567132 -2.9659267,16.369182 v 16.399516 l 0.00103,5.17e-4 14.1996497,-8.198466 14.200167,8.198466 14.200167,-8.198466 14.199133,8.197949 V 16.369182 l -0.001,-5.16e-4 -14.200167,8.198466 z M 11.236308,40.968714 -2.9648931,49.167697 v 0.001 h -0.00672 v 5.16e-4 L 11.231655,57.36923 25.431822,49.170764 39.631472,57.36923 53.82802,49.173348 v -0.0047 h 0.0062 v -0.0031 L 39.636641,40.968714 25.436474,49.16718 Z M 25.427172,65.568763 11.227006,73.767229 -2.9721278,65.56928 v 16.399516 l 5.167e-4,5.17e-4 14.2001671,-8.198466 14.200167,8.198466 14.19965,-8.198466 14.19965,8.197949 V 65.56928 l -0.001,-5.17e-4 -14.200167,8.198466 z M 11.230107,90.168812 -2.9716111,98.367795 v 0.001 h 0.00413 l 14.2017181,8.198985 14.19965,-8.198468 14.200167,8.198468 14.196032,-8.196401 v -0.0047 h -0.0021 v -0.0015 l -14.1981,-8.196399 -14.19965,8.197949 z m 14.199133,24.597978 -14.19965,8.19847 -14.1996508,-8.19744 v 16.399 l 0.00103,0.001 14.2001668,-8.19847 14.19965,8.19847 14.200167,-8.19847 14.199133,8.19743 v -16.399 l -5.16e-4,-0.001 -14.200167,8.19847 z m -14.19655,24.60005 -14.2017172,8.1995 v 5.2e-4 H 53.83009 v -0.003 l -14.197583,-8.1964 -14.200168,8.19795 z" /><path
       id="path21"
       style="display:inline;fill:#ef7f22;fill-opacity:1;stroke-width:0.8;stroke-miterlimit:10"
       inkscape:label="Light"
       d="M 25.438541,-0.03240053 11.237341,8.167099 V 24.568682 L 25.440608,16.368666 V -0.031367 Z m -14.2012,24.60108253 -0.0015,-10e-4 -14.2017177,8.1995 V 49.168731 L 11.237341,40.968714 Z M 53.838875,-0.03240053 39.637158,8.167099 V 24.568682 L 53.840426,16.368666 V -0.031367 Z M 39.637158,24.568682 l -0.0016,-10e-4 -14.201718,8.1995 v 16.401583 l 14.203267,-8.200017 z m -14.203267,24.600049 -0.0016,-10e-4 -14.2012,8.1995 v 16.401548 l 14.2028,-8.200016 z m -14.202751,24.600048 -0.0015,-10e-4 -14.2017178,8.199499 v 16.40155 L 11.23114,90.168812 Z m 42.601534,-24.601082 -14.201717,8.1995 V 73.768779 L 53.834224,65.568763 V 49.168731 Z m -14.201717,24.601082 -0.0016,-10e-4 -14.201717,8.199499 v 16.40155 L 39.630957,90.168812 Z M 25.434923,98.366244 11.233207,106.56522 v 16.40159 l 14.203267,-8.20002 V 98.366761 Z m -14.201716,24.600566 -0.0015,-5.2e-4 -14.2017178,8.19898 v 16.40159 l 14.2032678,-8.20002 z m 42.601534,-24.600566 -14.2012,8.198976 v 16.40159 l 14.20275,-8.20002 V 98.366761 Z m -14.2012,24.600566 -0.0015,-5.2e-4 -14.201719,8.19898 v 16.40159 l 14.203269,-8.20002 z" /><path
       id="path22"
       style="display:inline;fill:#7f5d41;fill-opacity:1;stroke-width:0.8;stroke-miterlimit:10"
       inkscape:label="Dark"
       d="m -2.9643764,-0.03240053 -0.00155,0.0010335 V 16.368666 L 11.237341,24.568682 V 8.167099 Z m 28.3998174,0 -0.0016,0.0010335 V 16.368666 l 14.203267,8.200016 V 8.167099 Z M 11.23269,24.567648 l -0.0015,0.001 V 40.96868 l 14.202751,8.200017 V 32.767148 Z m 28.399817,0 -0.0016,0.001 V 40.96868 l 14.203267,8.200017 V 32.767148 Z m -42.6030845,24.600049 -0.00155,0.001 V 65.568763 L 11.230623,73.768779 V 57.367197 Z m 28.3998165,0 -0.0016,0.001 v 16.400066 l 14.203268,8.200016 V 57.367197 Z m -14.20275,24.600049 -0.0021,10e-4 v 16.400066 l 14.2033,8.200016 V 81.967245 Z m 28.399816,0 -0.0016,10e-4 v 16.400033 l 14.203268,8.200016 v -16.40155 z m -42.5948155,24.598498 -0.00155,5.17e-4 v 16.400029 l 14.2032665,8.20002 v -16.40159 z m 28.4003335,0 -0.0016,5.17e-4 v 16.400029 l 14.202752,8.20002 v -16.40159 z m -14.203268,24.600046 -0.0015,5.2e-4 v 16.40003 l 14.203267,8.20002 v -16.40159 z m 28.399817,0 -0.0016,5.2e-4 v 16.40003 l 14.203267,8.20002 v -16.40159 z" /><path
       id="path10"
       style="display:inline;fill:#000000;fill-opacity:1;stroke:none;stroke-width:1.18625"
       inkscape:label="HI-LOGO-BLACK"
       d="m 25.595158,1.5124188 c -0.05442,-0.00344 -0.106029,1.129e-4 -0.153564,0.012436 -0.262581,0.068076 -0.526257,0.2759042 -0.760797,0.4093269 -0.56787,0.3230431 -1.125738,0.6654655 -1.685972,1.0014177 -1.615156,0.9685541 -3.264533,1.8814078 -4.920574,2.7771498 -0.613325,0.3317438 -1.235442,0.6470244 -1.848729,0.9787075 -0.162139,0.087684 -0.554252,0.1989293 -0.63589,0.372557 -0.09544,0.2029533 -0.01676,0.6084278 -0.01676,0.8321723 0,0.6895868 -0.0043,1.3784712 0.02594,2.0660991 0.06521,1.4889279 0.0011,2.9953089 0.0011,4.4858339 0,0.608534 -0.05184,1.24454 0.01946,1.848729 0.07156,0.606557 -0.0094,1.238553 0.03246,1.848728 0.01348,0.196771 -0.05572,0.526668 0.07732,0.692127 0.09782,0.12165 0.306959,0.193618 0.441771,0.267657 0.345198,0.189577 0.69062,0.3802 1.033321,0.574247 1.236722,0.700268 2.478471,1.394052 3.697459,2.125037 1.068137,0.640525 2.140857,1.285573 3.235141,1.880634 0.350035,0.190345 0.914232,0.596567 1.33234,0.498545 0.903544,-0.211826 1.806257,-0.836638 2.609527,-1.284756 1.608382,-0.897269 3.204673,-1.817474 4.78485,-2.763631 l 1.713009,-1.021967 c 0.171106,-0.102658 0.551294,-0.235653 0.632104,-0.42717 0.09302,-0.220449 0.02055,-0.601853 0.02055,-0.839741 0,-0.607579 0.02704,-1.213065 0.02704,-1.821693 V 9.7989883 c 0,-0.6811797 -0.02704,-1.3588285 -0.02704,-2.0390641 0,-0.1860431 0.07998,-0.6162473 -0.02811,-0.7710701 C 35.120593,6.8735525 34.889727,6.80857 34.766891,6.7471516 34.427029,6.5772016 34.09124,6.3947377 33.761147,6.2064292 32.524196,5.500787 31.271256,4.8172755 30.063688,4.0613838 28.976108,3.3806001 27.891358,2.693618 26.773934,2.0623334 26.498045,1.906472 25.976071,1.5364731 25.595158,1.5124188 Z" /><path
       style="display:inline;fill:#ef7f22;fill-opacity:1;stroke:none;stroke-width:1.07181"
       d="m 25.437865,2.6179229 c -0.237256,0.061511 -0.475883,0.2495625 -0.687803,0.3701145 -0.513085,0.2918818 -1.016793,0.6012031 -1.522989,0.9047484 -1.459355,0.8751248 -2.949837,1.6996708 -4.446137,2.5090067 -0.554158,0.2997425 -1.116248,0.5846276 -1.670374,0.8843155 -0.146496,0.079229 -0.500954,0.1796301 -0.574716,0.3365089 -0.08628,0.183376 -0.01479,0.5497412 -0.01479,0.7519018 0,0.6230682 -0.0032,1.2455865 0.02358,1.8668833 0.05895,1.345301 9.46e-4,2.706368 9.46e-4,4.053111 0,0.549834 -0.04684,1.124466 0.01757,1.670373 0.06463,0.548047 -0.0086,1.119056 0.02937,1.670373 0.01221,0.17779 -0.05069,0.476173 0.06957,0.62567 0.08842,0.109916 0.277545,0.174691 0.399356,0.241586 0.311896,0.171292 0.623793,0.343441 0.933439,0.51877 1.117427,0.632719 2.239345,1.259864 3.340749,1.920337 0.9651,0.578739 1.934424,1.161428 2.923148,1.699088 0.31627,0.171983 0.825884,0.538856 1.203655,0.450288 0.816386,-0.191392 1.632388,-0.755523 2.358175,-1.160414 1.453236,-0.810716 2.895572,-1.642333 4.32332,-2.497223 l 1.547544,-0.923605 c 0.154609,-0.09276 0.498295,-0.212727 0.571307,-0.38577 0.08403,-0.199185 0.01822,-0.543994 0.01822,-0.758934 0,-0.54897 0.02454,-1.09589 0.02454,-1.645809 v -5.625227 c 0,-0.6154702 -0.02454,-1.2277002 -0.02454,-1.8423182 0,-0.1680963 0.07246,-0.5568205 -0.0253,-0.6967089 C 34.182939,7.4508088 33.974354,7.3922472 33.863368,7.3367543 33.556294,7.1831982 33.252768,7.0179796 32.954526,6.8478361 31.836896,6.2102621 30.70486,5.5926945 29.613778,4.9097197 28.63111,4.2946065 27.651132,3.6740068 26.641497,3.1036182 26.35661,2.942673 25.781445,2.5288437 25.437844,2.6179229 m 0.245637,1.1701803 c 0.52463,-0.056506 0.999474,0.3534681 1.400171,0.6309566 0.868113,0.601185 1.758198,1.1587976 2.652945,1.7188743 0.829978,0.5195324 1.688895,0.9937325 2.530127,1.4947278 0.256141,0.1525475 0.812004,0.3507221 0.953612,0.620021 0.08124,0.1545657 0.05348,0.4179675 0.05348,0.5885579 0,0.4245163 -0.01758,0.853259 9.44e-4,1.2773412 0.07717,1.762622 0.02358,3.540239 0.02358,5.30589 0,0.500874 -0.02454,0.998288 -0.02454,1.498422 0,0.21023 0.04191,0.518357 -0.07717,0.704973 -0.107353,0.168305 -0.392926,0.268838 -0.561544,0.365509 -0.443257,0.254118 -0.882754,0.514846 -1.326473,0.768145 -1.326001,0.756961 -2.645624,1.527134 -3.954851,2.312741 -0.383548,0.230143 -0.765991,0.462429 -1.154523,0.684104 -0.229806,0.131109 -0.492808,0.291173 -0.7615,0.31875 -0.434308,0.04457 -0.925466,-0.354481 -1.277341,-0.565604 -0.958692,-0.575201 -1.915282,-1.15411 -2.874028,-1.729342 -0.86568,-0.519394 -1.730695,-1.040207 -2.603813,-1.546943 -0.251908,-0.146199 -0.508328,-0.284146 -0.76149,-0.428017 -0.08981,-0.05104 -0.234598,-0.09843 -0.294093,-0.186924 -0.04995,-0.07424 -0.04148,-0.240452 -0.04759,-0.328927 -0.01865,-0.270992 -0.02047,-0.538919 -0.02711,-0.810622 -0.02304,-0.9414 -0.04877,-1.881474 -0.04877,-2.824895 0,-1.242581 -0.02454,-2.489182 -0.02454,-3.7337743 0,-0.377868 -0.0032,-0.7536535 0.0224,-1.1299555 0.01072,-0.1536955 -0.01705,-0.3697864 0.04159,-0.5132729 0.06292,-0.1537415 0.385263,-0.2456847 0.525595,-0.3158475 C 18.550598,7.7219609 19.025272,7.4628763 19.493267,7.1954135 20.88364,6.4008118 22.255301,5.5742894 23.644635,4.777783 24.249854,4.430809 24.978021,3.8640806 25.683476,3.7881032 M 24.75002,12.353934 c -0.656291,0 -1.336762,0.01718 -1.989709,-0.04496 -0.202208,-0.01924 -0.492368,0.02607 -0.660578,-0.112986 -0.223977,-0.185179 -0.127203,-0.596218 -0.157053,-0.849194 -0.106216,-0.8998 -0.04212,-1.8690263 -0.04212,-2.7757631 -0.375595,0.048499 -0.712829,0.2199784 -1.056259,0.3684639 -0.09807,0.04238 -0.329131,0.1061306 -0.378209,0.2067864 -0.06924,0.14203 -0.01479,0.4224828 -0.01479,0.5792685 0,0.4422643 -0.02454,0.8831053 -0.02454,1.3264723 0,1.368478 -0.0064,2.735364 -2.2e-5,4.102239 0.0022,0.441224 -0.02133,0.887462 0.02047,1.326472 0.01168,0.123312 -0.03215,0.295126 0.01897,0.409518 0.05359,0.119976 0.29194,0.200252 0.402766,0.259122 0.349088,0.185428 0.683118,0.398613 1.031703,0.584141 v -4.126801 l 2.751198,0.221078 c 0.0043,1.529839 0.110258,3.063541 0.14775,4.593525 0.0043,0.163759 -0.0283,0.483366 0.03902,0.629366 0.100964,0.219108 0.63823,0.382103 0.844929,0.283815 0.385916,-0.183501 0.394416,-0.518035 0.419796,-0.888617 0.04727,-0.690685 0.07149,-1.395441 0.07149,-2.087967 0,-2.133445 0.02175,-4.276917 0.07406,-6.4112819 0.01683,-0.6889268 0.01683,-1.3744729 0,-2.0633984 -0.0086,-0.3305667 0.04995,-0.7370713 -0.04276,-1.0561708 -0.04952,-0.17066 -0.444876,-0.4759459 -0.620899,-0.500857 -0.113377,-0.016045 -0.26044,0.05567 -0.368468,0.086646 -0.136323,0.039078 -0.344587,0.056999 -0.381157,0.2180631 -0.141286,0.6221089 -0.04577,1.3301812 -0.06131,1.9646909 -0.03065,1.2509504 -0.02422,2.5053911 -0.02422,3.7583351 m 3.979419,-4.0285439 -0.04909,1.572112 -0.02454,2.2107889 0.04812,4.028545 0.05005,1.498422 c 0.344159,-0.09914 0.6597,-0.353274 0.982583,-0.5095 0.136462,-0.06604 0.328552,-0.108373 0.403622,-0.253054 0.09904,-0.190935 0.09904,-0.452582 0.114405,-0.662175 0.03065,-0.418339 0.04695,-0.832409 0.04695,-1.252779 0,-1.299564 0.02454,-2.604048 0.02454,-3.905725 V 9.7255542 c 0,-0.159967 0.0478,-0.4118379 -0.01479,-0.5604283 C 30.257984,9.0383478 30.023817,8.9570811 29.908586,8.8966438 29.541202,8.7039515 29.146658,8.3869989 28.729499,8.3253913 Z"
       id="path10-5"
       inkscape:label="HI-LOGO-ORANGE" /><path
       d="m 6.4027212,31.861456 v 1.072113 q -0.1212673,-0.04134 -0.1874131,-0.04134 -0.1267794,0 -0.2177298,0.09371 -0.09095,0.09371 -0.09095,0.225998 0,0.112999 0.099219,0.286632 l 0.085438,0.148828 q 0.2315102,0.402387 0.2315102,0.777213 0,0.548459 -0.3913625,0.928797 -0.3886065,0.380338 -0.9508457,0.380338 -0.2700952,0 -0.5346784,-0.124023 v -1.088649 q 0.1598523,0.101974 0.2838757,0.101974 0.1460719,0 0.2425345,-0.08268 0.099219,-0.08544 0.099219,-0.212218 0,-0.08268 -0.1570962,-0.361045 -0.2508028,-0.440972 -0.2508028,-0.881944 0,-0.531922 0.3775822,-0.915017 0.3803382,-0.38585 0.9067484,-0.38585 0.2315103,0 0.4547523,0.07717 z m 1.521353,0.01654 v 3.762042 H 6.8933024 v -3.762042 z m 3.3045328,2.554881 H 9.6659133 q -0.035829,-0.118511 -0.035829,-0.21773 0,-0.137803 0.049609,-0.270095 h 0.5236547 q -0.05512,-0.305924 -0.3445099,-0.305924 -0.1929252,0 -0.3141925,0.165364 -0.1212672,0.162609 -0.1212672,0.418924 0,0.267339 0.1157551,0.432703 0.1185112,0.165365 0.3086803,0.165365 0.1543402,0 0.2976562,-0.154341 l 0.587044,0.705556 q -0.410655,0.32246 -0.9122609,0.32246 -0.6118485,0 -1.0280158,-0.410655 -0.4161672,-0.410655 -0.4161672,-1.016991 0,-0.603581 0.4189233,-1.019748 0.4216794,-0.416167 1.0335279,-0.416167 0.5980687,0 1.0032117,0.407899 0.407899,0.405143 0.407899,1.000455 0,0.06063 -0.01103,0.192925 z m 0.427192,-1.50206 h 1.030772 v 1.480012 q 0,0.173632 0.03583,0.242534 0.03583,0.06615 0.129535,0.06615 0.173633,0 0.173633,-0.30868 v -1.480012 h 1.030772 v 1.480012 q 0,0.173632 0.03583,0.242534 0.03858,0.06615 0.132291,0.06615 0.170877,0 0.170877,-0.30868 v -1.480012 h 1.030772 v 1.692229 q 0,0.463021 -0.311437,0.788238 -0.311436,0.32246 -0.755164,0.32246 -0.457509,0 -0.82131,-0.38585 -0.402387,0.38585 -0.810286,0.38585 -0.515386,0 -0.826823,-0.374826 -0.24529,-0.2949 -0.24529,-0.851627 z"
       id="text13"
       style="font-weight:bold;font-size:5.64444px;line-height:4.40944px;font-family:'Bauhaus 93';-inkscape-font-specification:'Bauhaus 93 Bold';text-align:center;letter-spacing:0px;text-anchor:middle;stroke-width:0.264583"
       inkscape:label="Slew"
       aria-label="Slew" /><path
       d="m 35.550564,31.78429 q 0.799261,0 1.369769,0.581531 0.573263,0.581532 0.573263,1.391818 0,0.824066 -0.576019,1.400086 -0.57602,0.576019 -1.400086,0.576019 -0.818554,0 -1.39733,-0.578776 -0.578775,-0.578775 -0.578775,-1.397329 0,-0.826823 0.581531,-1.400086 0.584288,-0.573263 1.427647,-0.573263 z m -0.03307,1.107941 q -0.344509,0 -0.587044,0.253559 -0.242534,0.253559 -0.242534,0.611849 0,0.358289 0.242534,0.611848 0.245291,0.253559 0.587044,0.253559 0.347265,0 0.587044,-0.250803 0.242534,-0.253558 0.242534,-0.614604 0,-0.361046 -0.242534,-0.611849 -0.239779,-0.253559 -0.587044,-0.253559 z m 3.916382,0.609093 v 1.080381 h -0.460265 v 1.058333 h -1.030772 v -2.334395 q 0,-0.394119 0.135048,-0.672483 0.170877,-0.355533 0.518142,-0.578775 0.350021,-0.225998 0.727604,-0.225998 l 0.110243,0.0028 v 1.080381 q -0.03583,-0.0028 -0.05237,-0.0028 -0.195681,0 -0.303168,0.129535 -0.104731,0.129536 -0.104731,0.369314 v 0.09371 z m 1.943032,0 v 1.080381 H 40.91664 v 1.058333 h -1.030771 v -2.334395 q 0,-0.394119 0.135047,-0.672483 0.170877,-0.355533 0.518142,-0.578775 0.350022,-0.225998 0.727604,-0.225998 l 0.110243,0.0028 v 1.080381 q -0.03583,-0.0028 -0.05237,-0.0028 -0.195681,0 -0.303168,0.129535 -0.104731,0.129536 -0.104731,0.369314 v 0.09371 z m 2.174542,-0.570508 v 1.085894 q -0.21773,0 -0.300412,0.08268 -0.07993,0.07993 -0.101974,0.319705 -0.07166,0.796505 -0.617361,1.124478 -0.289388,0.170877 -0.82131,0.170877 h -0.143316 v -1.091406 h 0.04685 q 0.248047,0 0.352778,-0.101975 0.107487,-0.10473 0.124023,-0.363801 0.02205,-0.42168 0.07717,-0.592556 0.05788,-0.170877 0.23151,-0.338998 0.303168,-0.2949 0.840603,-0.2949 z m 3.037195,1.502061 h -1.562694 q -0.03583,-0.118511 -0.03583,-0.21773 0,-0.137804 0.04961,-0.270095 h 0.523654 q -0.05512,-0.305924 -0.344509,-0.305924 -0.192925,0 -0.314192,0.165364 -0.121268,0.162608 -0.121268,0.418923 0,0.26734 0.115755,0.432704 0.118512,0.165364 0.308681,0.165364 0.15434,0 0.297656,-0.15434 l 0.587044,0.705555 q -0.410655,0.322461 -0.912261,0.322461 -0.611848,0 -1.028016,-0.410655 -0.416167,-0.410655 -0.416167,-1.016991 0,-0.603581 0.418923,-1.019748 0.42168,-0.416167 1.033528,-0.416167 0.598068,0 1.003211,0.407899 0.407899,0.405143 0.407899,1.000455 0,0.06063 -0.01102,0.192925 z m 1.344963,-2.554881 v 1.05282 h 0.463021 v 1.08865 h -0.463021 q 0,0.327973 0.101975,0.451996 0.104731,0.124023 0.380338,0.124023 v 1.083138 q -0.07993,0.0028 -0.118511,0.0028 -0.350021,0 -0.661458,-0.162609 -0.30868,-0.162608 -0.496093,-0.440972 -0.237023,-0.355533 -0.237023,-0.942577 V 31.87804 Z"
       id="text14"
       style="font-weight:bold;font-size:5.64444px;line-height:4.40944px;font-family:'Bauhaus 93';-inkscape-font-specification:'Bauhaus 93 Bold';text-align:center;letter-spacing:0px;text-anchor:middle;stroke-width:0.264583"
       inkscape:label="Offset"
       aria-label="Offset" /><path
       d="m 5.2861421,118.80749 v 3.76204 H 4.1671759 v -3.76204 z m 3.1253883,3.76204 H 7.3807586 v -1.55167 q 0,-0.23703 -0.1956813,-0.23703 -0.1929252,0 -0.1929252,0.23703 v 1.55167 H 5.9613803 v -1.53238 q 0,-0.53744 0.3555336,-0.90399 0.3555336,-0.36932 0.8709195,-0.36932 0.5897999,0 0.9453335,0.42719 0.2783635,0.33349 0.2783635,0.9288 z m 1.5709626,1.01699 H 8.9517212 v -2.29306 q 0,-0.63114 0.3307289,-1.02801 0.1901691,-0.22876 0.482313,-0.3638 0.2948999,-0.13505 0.6035799,-0.13505 0.614605,0 1.036284,0.41341 0.42168,0.41341 0.42168,1.01424 0,0.58428 -0.418924,1.00872 -0.418923,0.42443 -0.992186,0.42443 -0.09371,0 -0.275608,-0.0193 v -1.1355 q 0.12678,0.10197 0.253559,0.10197 0.159852,0 0.272851,-0.11851 0.115756,-0.11851 0.115756,-0.28112 0,-0.16261 -0.118512,-0.2756 -0.118511,-0.11576 -0.283875,-0.11576 -0.396875,0 -0.396875,0.54846 z m 2.29581,-3.72621 h 1.030772 v 1.55167 q 0,0.23426 0.195681,0.23426 0.192925,0 0.192925,-0.23426 v -1.55167 h 1.030772 v 1.53237 q 0,0.53468 -0.355533,0.904 -0.355534,0.36655 -0.87092,0.36655 -0.587044,0 -0.945333,-0.42719 -0.278364,-0.33348 -0.278364,-0.92604 z m 3.968747,-1.05282 v 1.05282 h 0.46302 v 1.08864 h -0.46302 q 0,0.32798 0.101975,0.452 0.10473,0.12402 0.380338,0.12402 v 1.08314 q -0.07993,0.003 -0.118511,0.003 -0.350022,0 -0.661458,-0.16261 -0.308681,-0.16261 -0.496094,-0.44097 -0.237022,-0.35554 -0.237022,-0.94258 v -2.25722 z"
       id="text15"
       style="font-weight:bold;font-size:5.64444px;line-height:4.40944px;font-family:'Bauhaus 93';-inkscape-font-specification:'Bauhaus 93 Bold';text-align:center;letter-spacing:0px;text-anchor:middle;stroke-width:0.264583"
       inkscape:label="Input"
       aria-label="Input" /><path
       d="m 33.870829,118.74892 q 0.799262,0 1.369769,0.58153 0.573264,0.58153 0.573264,1.39182 0,0.82407 -0.57602,1.40008 -0.576019,0.57602 -1.400086,0.57602 -0.818554,0 -1.397329,-0.57877 -0.578776,-0.57878 -0.578776,-1.39733 0,-0.82682 0.581532,-1.40009 0.584287,-0.57326 1.427646,-0.57326 z m -0.03307,1.10794 q -0.344509,0 -0.587044,0.25356 -0.242534,0.25356 -0.242534,0.61185 0,0.35829 0.242534,0.61185 0.245291,0.25356 0.587044,0.25356 0.347266,0 0.587044,-0.25081 0.242535,-0.25356 0.242535,-0.6146 0,-0.36105 -0.242535,-0.61185 -0.239778,-0.25356 -0.587044,-0.25356 z m 2.425346,0.0386 h 1.030771 v 1.55167 q 0,0.23426 0.195682,0.23426 0.192925,0 0.192925,-0.23426 v -1.55167 h 1.030772 v 1.53237 q 0,0.53468 -0.355534,0.904 -0.355533,0.36655 -0.870919,0.36655 -0.587044,0 -0.945334,-0.42719 -0.278363,-0.33348 -0.278363,-0.92604 z m 3.968747,-1.05282 v 1.05282 h 0.46302 v 1.08865 h -0.46302 q 0,0.32797 0.101975,0.45199 0.10473,0.12403 0.380338,0.12403 v 1.08313 q -0.07993,0.003 -0.118511,0.003 -0.350022,0 -0.661458,-0.16261 -0.308681,-0.16261 -0.496094,-0.44097 -0.237022,-0.35554 -0.237022,-0.94258 v -2.25722 z m 1.940276,4.77903 h -1.030772 v -2.29305 q 0,-0.63115 0.330729,-1.02802 0.190169,-0.22875 0.482313,-0.3638 0.2949,-0.13505 0.60358,-0.13505 0.614605,0 1.036284,0.41341 0.421679,0.41341 0.421679,1.01424 0,0.58428 -0.418923,1.00872 -0.418923,0.42444 -0.992187,0.42444 -0.09371,0 -0.275607,-0.0193 v -1.1355 q 0.126779,0.10197 0.253559,0.10197 0.159852,0 0.272851,-0.11851 0.115755,-0.11851 0.115755,-0.28112 0,-0.1626 -0.118511,-0.2756 -0.118511,-0.11576 -0.283876,-0.11576 -0.396874,0 -0.396874,0.54846 z m 2.29581,-3.72621 h 1.030771 v 1.55167 q 0,0.23426 0.195682,0.23426 0.192925,0 0.192925,-0.23426 v -1.55167 h 1.030772 v 1.53237 q 0,0.53468 -0.355534,0.904 -0.355533,0.36655 -0.870919,0.36655 -0.587044,0 -0.945334,-0.42719 -0.278363,-0.33348 -0.278363,-0.92604 z m 3.968747,-1.05282 v 1.05282 h 0.463021 v 1.08865 h -0.463021 q 0,0.32797 0.101975,0.45199 0.104731,0.12403 0.380338,0.12403 v 1.08313 q -0.07993,0.003 -0.118511,0.003 -0.350021,0 -0.661458,-0.16261 -0.30868,-0.16261 -0.496093,-0.44097 -0.237023,-0.35554 -0.237023,-0.94258 v -2.25722 z"
       id="text16"
       style="font-weight:bold;font-size:5.64444px;line-height:4.40944px;font-family:'Bauhaus 93';-inkscape-font-specification:'Bauhaus 93 Bold';text-align:center;letter-spacing:0px;text-anchor:middle;stroke-width:0.264583"
       inkscape:label="Output"
       aria-label="Output" /><path
       d="m 25.003689,34.894829 h -1.008724 v -0.777213 h 1.008724 v -1.058333 h 0.799261 v 1.058333 h 1.008723 v 0.777213 H 25.80295 v 1.055576 h -0.799261 z"
       id="text17"
       style="font-weight:bold;font-size:5.64444px;line-height:4.40944px;font-family:'Bauhaus 93';-inkscape-font-specification:'Bauhaus 93 Bold';text-align:center;letter-spacing:0px;text-anchor:middle;stroke-width:0.264583"
       inkscape:label="plus"
       aria-label="+" /><path
       d="m 12.794278,28.21665 v -0.986675 q 0.338997,0 0.338997,-0.259071 0,-0.237022 -0.259071,-0.237022 -0.261827,0 -0.261827,0.325217 v 2.458418 h -1.118966 v -2.342663 q 0,-0.363802 0.07166,-0.595312 0.07441,-0.234266 0.250803,-0.43546 0.198437,-0.223242 0.496093,-0.352777 0.297656,-0.129536 0.614605,-0.129536 0.573263,0 0.96187,0.385851 0.391362,0.38585 0.391362,0.956357 0,0.553971 -0.350021,0.898481 -0.319705,0.316948 -0.964626,0.316948 z m 3.174998,-1.504817 q 0.584287,0 1.000455,0.42168 0.418923,0.418923 0.418923,1.005967 0,0.595312 -0.424435,1.014235 -0.42168,0.418924 -1.019748,0.418924 -0.598068,0 -1.022504,-0.418924 -0.424435,-0.421679 -0.424435,-1.014235 0,-0.60358 0.424435,-1.014235 0.424436,-0.413412 1.047309,-0.413412 z m -0.02756,1.016992 q -0.165364,0 -0.28112,0.121267 -0.115755,0.118511 -0.115755,0.292144 0,0.170877 0.115755,0.292144 0.118512,0.121267 0.28112,0.121267 0.165364,0 0.28112,-0.121267 0.118511,-0.121267 0.118511,-0.292144 0,-0.173633 -0.115755,-0.292144 -0.115755,-0.121267 -0.283876,-0.121267 z m 2.907658,-1.973349 v 3.762041 h -1.030771 v -3.762041 z m 0.959114,4.966446 v -0.895725 q 0.209462,0.08819 0.366558,0.08819 0.501606,0 0.650434,-0.564995 -0.270095,0.159852 -0.529166,0.159852 -0.383095,0 -0.631141,-0.283876 -0.248047,-0.286632 -0.248047,-0.727603 v -1.728059 h 1.030772 v 1.477256 q 0,0.24529 0.203949,0.24529 0.195681,0 0.195681,-0.270095 V 26.769706 H 21.8783 v 2.452906 q 0,0.686263 -0.38585,1.107942 -0.460265,0.501606 -1.113454,0.501606 -0.286632,0 -0.570508,-0.110243 z m 3.640774,-0.187413 H 22.41849 v -2.293054 q 0,-0.631141 0.330728,-1.028016 0.19017,-0.228754 0.482313,-0.363802 0.2949,-0.135047 0.603581,-0.135047 0.614604,0 1.036284,0.413411 0.421679,0.413411 0.421679,1.014235 0,0.584288 -0.418923,1.008723 -0.418924,0.424436 -0.992187,0.424436 -0.09371,0 -0.275607,-0.01929 V 28.4206 q 0.126779,0.101974 0.253558,0.101974 0.159853,0 0.272852,-0.118511 0.115755,-0.118511 0.115755,-0.28112 0,-0.162608 -0.118511,-0.275607 -0.118512,-0.115755 -0.283876,-0.115755 -0.396875,0 -0.396875,0.548459 z m 3.326582,-4.779033 v 1.149283 q 0.261827,-0.190169 0.523654,-0.190169 0.396875,0 0.628385,0.286631 0.234267,0.286632 0.234267,0.774457 v 1.741839 h -1.030772 v -1.452451 q 0,-0.176389 -0.03859,-0.237022 -0.03583,-0.06063 -0.143316,-0.06063 -0.173633,0 -0.173633,0.256315 v 1.493792 H 25.745067 V 25.75548 Z m 3.290753,0.956357 q 0.584288,0 1.000455,0.42168 0.418923,0.418923 0.418923,1.005967 0,0.595312 -0.424435,1.014235 -0.42168,0.418924 -1.019748,0.418924 -0.598068,0 -1.022503,-0.418924 -0.424436,-0.421679 -0.424436,-1.014235 0,-0.60358 0.424436,-1.014235 0.424435,-0.413412 1.047308,-0.413412 z m -0.02756,1.016992 q -0.165364,0 -0.281119,0.121267 -0.115755,0.118511 -0.115755,0.292144 0,0.170877 0.115755,0.292144 0.118511,0.121267 0.281119,0.121267 0.165365,0 0.28112,-0.121267 0.118511,-0.121267 0.118511,-0.292144 0,-0.173633 -0.115755,-0.292144 -0.115755,-0.121267 -0.283876,-0.121267 z m 4.327036,1.788692 H 33.3353 v -1.55167 q 0,-0.237022 -0.195682,-0.237022 -0.192925,0 -0.192925,0.237022 v 1.55167 H 31.915921 V 27.98514 q 0,-0.537435 0.355534,-0.903993 0.355533,-0.369314 0.870919,-0.369314 0.5898,0 0.945334,0.427192 0.278363,0.333485 0.278363,0.928797 z m 1.631598,-2.747806 v 2.747806 h -1.030772 v -2.747806 z m -0.51263,-1.226453 q 0.209462,0 0.361046,0.148828 0.15434,0.146072 0.15434,0.347265 0,0.214974 -0.146072,0.352778 -0.143316,0.137804 -0.369314,0.137804 -0.225998,0 -0.37207,-0.137804 -0.143316,-0.137804 -0.143316,-0.352778 0,-0.201193 0.151584,-0.347265 0.15434,-0.148828 0.363802,-0.148828 z m 2.805683,2.709221 1.022504,-0.03859 q -0.0441,0.595312 -0.443728,0.978406 -0.399631,0.383095 -0.972894,0.383095 -0.606337,0 -1.02526,-0.42168 -0.416167,-0.421679 -0.416167,-1.033528 0,-0.581531 0.421679,-0.994942 0.42168,-0.413412 1.01148,-0.413412 0.515385,0 0.909504,0.325217 0.394119,0.325217 0.490581,0.829579 l -1.044552,0.03859 q -0.135048,-0.176389 -0.341753,-0.176389 -0.176389,0 -0.289388,0.115755 -0.112999,0.115755 -0.112999,0.292144 0,0.179145 0.118511,0.300412 0.121268,0.121267 0.300412,0.121267 0.261827,0 0.37207,-0.305924 z"
       id="text18"
       style="font-weight:bold;font-size:5.64444px;line-height:4.40944px;font-family:'Bauhaus 93';-inkscape-font-specification:'Bauhaus 93 Bold';text-align:center;letter-spacing:0px;text-anchor:middle;stroke-width:0.264583"
       inkscape:label="Polyphonic"
       aria-label="Polyphonic" /><path
       d="M 4.3854928,7.6372199 V 10.387782 H 3.2665266 V 6.6257407 h 1.4359147 q 0.6559457,0 1.0169914,0.3252167 0.4023869,0.3638018 0.4023869,0.9232849 0,0.5705074 -0.4988495,0.96187 L 6.2678915,10.387782 H 5.0938039 L 4.5508572,9.1751094 V 8.2077273 h 0.088194 q 0.3527775,0 0.3527775,-0.3031682 0,-0.2673392 -0.407899,-0.2673392 z m 3.2108267,0.00276 V 10.387786 H 6.5655477 V 7.639976 Z M 7.0836896,6.413523 q 0.2094617,0 0.3610458,0.148828 0.1543401,0.1460719 0.1543401,0.3472653 0,0.2149738 -0.1460719,0.3527775 -0.1433159,0.1378038 -0.369314,0.1378038 -0.2259981,0 -0.37207,-0.1378038 -0.1433159,-0.1378037 -0.1433159,-0.3527775 0,-0.2011934 0.1515841,-0.3472653 Q 6.874228,6.413523 7.0836896,6.413523 Z M 9.925202,7.6785611 v 1.0858932 q -0.2177299,0 -0.3004121,0.082682 -0.079926,0.079926 -0.1019748,0.3197046 -0.071658,0.7965055 -0.6173606,1.1244781 -0.2893878,0.170877 -0.8213102,0.170877 H 7.9408285 V 9.3707907 h 0.046853 q 0.2480467,0 0.3527775,-0.1019748 Q 8.4479461,9.1640851 8.4644826,8.9050141 8.4865312,8.4833348 8.5416527,8.3124581 8.5995302,8.1415815 8.7731629,7.973461 9.0763311,7.6785611 9.6137656,7.6785611 Z m 3.037194,1.5020605 h -1.562694 q -0.03583,-0.1185112 -0.03583,-0.2177299 0,-0.1378037 0.04961,-0.2700953 h 0.523655 q -0.05512,-0.3059242 -0.34451,-0.3059242 -0.192925,0 -0.314192,0.1653644 -0.121268,0.1626084 -0.121268,0.4189233 0,0.2673392 0.115756,0.4327037 0.118511,0.1653644 0.30868,0.1653644 0.15434,0 0.297656,-0.1543401 l 0.587044,0.7055551 q -0.410655,0.322461 -0.912261,0.322461 -0.611848,0 -1.028016,-0.410655 -0.416167,-0.4106556 -0.416167,-1.0169919 0,-0.6035803 0.418924,-1.0197475 0.421679,-0.4161672 1.033527,-0.4161672 0.598069,0 1.003211,0.407899 0.407899,0.4051429 0.407899,1.000455 0,0.060634 -0.01102,0.1929252 z"
       id="text77"
       style="font-weight:bold;font-size:5.64444px;line-height:4.40944px;font-family:'Bauhaus 93';-inkscape-font-specification:'Bauhaus 93 Bold';text-align:center;letter-spacing:0px;text-anchor:middle;stroke-width:0.264583"
       inkscape:label="Rise"
       aria-label="Rise" /><path
       d="m 40.539677,8.2793852 v 1.0087232 h -0.37207 V 10.269271 H 39.048641 V 7.934876 q 0,-0.6587018 0.405143,-1.0886494 0.407899,-0.4327037 1.025259,-0.4327037 0.680751,0 1.138259,0.5870439 l -0.917773,0.669726 Q 40.622359,7.455319 40.426678,7.455319 q -0.259071,0 -0.259071,0.3582897 v 0.4657765 z m 2.753318,0.9591139 V 10.3051 q -0.126779,0.02205 -0.23151,0.02205 -0.620117,0 -1.033528,-0.4078985 -0.413411,-0.407899 -0.413411,-1.0225036 0,-0.5980681 0.416167,-1.0142354 0.418924,-0.4161672 1.016992,-0.4161672 0.66697,0 1.050064,0.3913626 0.38585,0.3886065 0.38585,1.0638447 V 10.269271 H 43.452848 V 8.9959646 q 0,-0.2177299 -0.107487,-0.3472654 -0.104731,-0.1295355 -0.283876,-0.1295355 -0.162608,0 -0.28112,0.1185112 -0.118511,0.1185112 -0.118511,0.2811196 0,0.1708766 0.107487,0.2811196 0.107487,0.1102429 0.272851,0.1102429 0.135048,0 0.250803,-0.071658 z m 2.82222,-2.7312696 V 10.269271 H 45.084444 V 6.5072295 Z m 1.634352,0 V 10.269271 H 46.718795 V 6.5072295 Z"
       id="text78"
       style="font-weight:bold;font-size:5.64444px;line-height:4.40944px;font-family:'Bauhaus 93';-inkscape-font-specification:'Bauhaus 93 Bold';text-align:center;letter-spacing:0px;text-anchor:middle;stroke-width:0.264583"
       inkscape:label="Fall"
       aria-label="Fall" /><path
       style="fill:#000000;fill-opacity:1;stroke:#000000;stroke-width:0.264583;stroke-opacity:1"
       d="M 6.9042575,13.95677 9.3356891,11.57552"
       id="path78" /><path
       style="display:inline;fill:#000000;fill-opacity:1;stroke:#000000;stroke-width:0.264583;stroke-opacity:1"
       d="M 44.61482,13.95677 42.183388,11.57552"
       id="path78-0" /><path
       style="fill:none;fill-opacity:1;stroke:#000000;stroke-width:0.507969;stroke-linecap:butt;stroke-dasharray:none;stroke-opacity:1;paint-order:normal"
       d="m 2.5796875,26.524479 c 0,-1.852083 0,-3.704167 0.7937659,-4.630209 0.7937658,-0.926041 2.381234,-0.926041 3.968734,-0.926041"
       id="path79"
       inkscape:path-effect="#path-effect79"
       inkscape:original-d="m 2.5796875,26.524479 c 0,-1.852083 0,-3.704167 0,-5.55625 1.5875317,0 3.1749999,0 4.7624999,0"
       transform="matrix(0.53561245,0,0,0.45222506,1.0724753,11.488907)" /><path
       style="display:inline;fill:none;fill-opacity:1;stroke:#000000;stroke-width:0.507969;stroke-linecap:butt;stroke-dasharray:none;stroke-opacity:1;paint-order:normal"
       d="m 2.5796875,26.524479 c 0,-1.852083 0,-3.704167 0.7937659,-4.630209 0.7937658,-0.926041 2.381234,-0.926041 3.968734,-0.926041"
       id="path79-1"
       inkscape:path-effect="#path-effect79-3"
       inkscape:original-d="m 2.5796875,26.524479 c 0,-1.852083 0,-3.704167 0,-5.55625 1.5875317,0 3.1749999,0 4.7624999,0"
       transform="matrix(-0.53561245,0,0,-0.45222506,15.295449,32.851441)" /><path
       style="display:inline;fill:none;fill-opacity:1;stroke:#000000;stroke-width:0.507969;stroke-linecap:butt;stroke-dasharray:none;stroke-opacity:1;paint-order:normal"
       d="m 2.5796875,26.524479 c 0,-1.852083 0,-3.704167 0.7937659,-4.630209 0.7937658,-0.926041 2.381234,-0.926041 3.968734,-0.926041"
       id="path79-1-9"
       inkscape:path-effect="#path-effect79-3-2"
       inkscape:original-d="m 2.5796875,26.524479 c 0,-1.852083 0,-3.704167 0,-5.55625 1.5875317,0 3.1749999,0 4.7624999,0"
       transform="matrix(0.53561245,0,0,-0.45222506,35.380661,31.773208)" /><path
       style="display:inline;fill:none;fill-opacity:1;stroke:#000000;stroke-width:0.507969;stroke-linecap:butt;stroke-dasharray:none;stroke-opacity:1;paint-order:normal"
       d="m 2.5796875,26.524479 c 0,-1.852083 0,-3.704167 0.7937659,-4.630209 0.7937658,-0.926041 2.381234,-0.926041 3.968734,-0.926041"
       id="path79-1-9-6"
       inkscape:path-effect="#path-effect79-3-2-7"
       inkscape:original-d="m 2.5796875,26.524479 c 0,-1.852083 0,-3.704167 0,-5.55625 1.5875317,0 3.1749999,0 4.7624999,0"
       transform="matrix(-0.53561245,0,0,0.45222506,50.977516,10.410674)" /><path
       style="font-size:5.64444px;line-height:4.40944px;font-family:Candara;-inkscape-font-specification:Candara;text-align:center;letter-spacing:0px;text-anchor:middle;stroke:#000000;stroke-width:0.25"
       d="m 113.71197,-25.782448 h -2.25723 v -0.352777 h 2.25723 z m 0,1.141015 h -2.25723 v -0.352777 h 2.25723 z m 2.0891,-0.917773 q 0,1.449695 -0.7028,2.317859 -0.2949,0.361046 -0.70555,0.576019 l -0.14056,-0.234266 q 0.3197,-0.248047 0.54845,-0.598068 0.54571,-0.840603 0.54571,-2.061544 0,-1.050064 -0.55949,-1.830033 -0.23426,-0.327973 -0.56223,-0.573264 l 0.19843,-0.234266 q 0.40239,0.184657 0.68902,0.509874 0.68902,0.779969 0.68902,2.127689 z"
       id="text79"
       transform="rotate(90)"
       aria-label="=)" /></g><g
     inkscape:groupmode="layer"
     id="layer2"
     inkscape:label="components"
     style="display:none"><circle
       style="fill:#ff0000;fill-opacity:1;stroke-width:0.132291"
       id="path1"
       cx="6.4418678"
       cy="41.308167"
       r="2.8937349"
       inkscape:label="SL1" /><circle
       style="display:inline;fill:#ff0000;fill-opacity:1;stroke-width:0.132291"
       id="path1-8"
       cx="13.318235"
       cy="41.308167"
       r="2.8937349"
       inkscape:label="SL2" /><circle
       style="display:inline;fill:#ff0000;fill-opacity:1;stroke-width:0.132291"
       id="path1-5"
       cx="6.4418678"
       cy="49.559658"
       r="2.8937349"
       inkscape:label="SL3" /><circle
       style="display:inline;fill:#ff0000;fill-opacity:1;stroke-width:0.132291"
       id="path1-8-5"
       cx="13.318235"
       cy="49.559658"
       r="2.8937349"
       inkscape:label="SL4" /><circle
       style="display:inline;fill:#ff0000;fill-opacity:1;stroke-width:0.132291"
       id="path1-1"
       cx="6.4418669"
       cy="57.811146"
       r="2.8937349"
       inkscape:label="SL5" /><circle
       style="display:inline;fill:#ff0000;fill-opacity:1;stroke-width:0.132291"
       id="path1-8-52"
       cx="13.318235"
       cy="57.811146"
       r="2.8937349"
       inkscape:label="SL6" /><circle
       style="display:inline;fill:#ff0000;fill-opacity:1;stroke-width:0.132291"
       id="path1-5-7"
       cx="6.4418669"
       cy="66.06263"
       r="2.8937349"
       inkscape:label="SL7" /><circle
       style="display:inline;fill:#ff0000;fill-opacity:1;stroke-width:0.132291"
       id="path1-8-5-6"
       cx="13.318235"
       cy="66.06263"
       r="2.8937349"
       inkscape:label="SL8" /><circle
       style="display:inline;fill:#ff0000;fill-opacity:1;stroke-width:0.132291"
       id="path1-3"
       cx="6.4418669"
       cy="74.314125"
       r="2.8937349"
       inkscape:label="SL9" /><circle
       style="display:inline;fill:#ff0000;fill-opacity:1;stroke-width:0.132291"
       id="path1-8-2"
       cx="13.318233"
       cy="74.314125"
       r="2.8937349"
       inkscape:label="SL10" /><circle
       style="display:inline;fill:#ff0000;fill-opacity:1;stroke-width:0.132291"
       id="path1-5-2"
       cx="6.4418669"
       cy="82.565613"
       r="2.8937349"
       inkscape:label="SL11" /><circle
       style="display:inline;fill:#ff0000;fill-opacity:1;stroke-width:0.132291"
       id="path1-8-5-1"
       cx="13.318233"
       cy="82.565613"
       r="2.8937349"
       inkscape:label="SL12" /><circle
       style="display:inline;fill:#ff0000;fill-opacity:1;stroke-width:0.132291"
       id="path1-1-6"
       cx="6.4418659"
       cy="90.817108"
       r="2.8937349"
       inkscape:label="SL13" /><circle
       style="display:inline;fill:#ff0000;fill-opacity:1;stroke-width:0.132291"
       id="path1-8-52-8"
       cx="13.318233"
       cy="90.817108"
       r="2.8937349"
       inkscape:label="SL14" /><circle
       style="display:inline;fill:#ff0000;fill-opacity:1;stroke-width:0.132291"
       id="path1-5-7-5"
       cx="6.4418659"
       cy="99.068588"
       r="2.8937349"
       inkscape:label="SL15" /><circle
       style="display:inline;fill:#ff0000;fill-opacity:1;stroke-width:0.132291"
       id="path1-8-5-6-7"
       cx="13.318233"
       cy="99.068588"
       r="2.8937349"
       inkscape:label="SL16" /><circle
       style="display:inline;fill:#ff00ff;fill-opacity:1;stroke-width:0.132291"
       id="path1-98"
       cx="21.97147"
       cy="41.308163"
       r="2.8937349"
       inkscape:label="LED1" /><circle
       style="display:inline;fill:#ff00ff;fill-opacity:1;stroke-width:0.132291"
       id="path1-8-6"
       cx="28.847836"
       cy="41.308163"
       r="2.8937349"
       inkscape:label="LED2" /><circle
       style="display:inline;fill:#ff00ff;fill-opacity:1;stroke-width:0.132291"
       id="path1-5-5"
       cx="21.97147"
       cy="49.559654"
       r="2.8937349"
       inkscape:label="LED3" /><circle
       style="display:inline;fill:#ff00ff;fill-opacity:1;stroke-width:0.132291"
       id="path1-8-5-0"
       cx="28.847836"
       cy="49.559654"
       r="2.8937349"
       inkscape:label="LED4" /><circle
       style="display:inline;fill:#ff00ff;fill-opacity:1;stroke-width:0.132291"
       id="path1-1-2"
       cx="21.97147"
       cy="57.811142"
       r="2.8937349"
       inkscape:label="LED5" /><circle
       style="display:inline;fill:#ff00ff;fill-opacity:1;stroke-width:0.132291"
       id="path1-8-52-86"
       cx="28.847836"
       cy="57.811142"
       r="2.8937349"
       inkscape:label="LED6" /><circle
       style="display:inline;fill:#ff00ff;fill-opacity:1;stroke-width:0.132291"
       id="path1-5-7-0"
       cx="21.97147"
       cy="66.06263"
       r="2.8937349"
       inkscape:label="LED7" /><circle
       style="display:inline;fill:#ff00ff;fill-opacity:1;stroke-width:0.132291"
       id="path1-8-5-6-24"
       cx="28.847836"
       cy="66.06263"
       r="2.8937349"
       inkscape:label="LED8" /><circle
       style="display:inline;fill:#ff00ff;fill-opacity:1;stroke-width:0.132291"
       id="path1-3-8"
       cx="21.97147"
       cy="74.314125"
       r="2.8937349"
       inkscape:label="LED9" /><circle
       style="display:inline;fill:#ff00ff;fill-opacity:1;stroke-width:0.132291"
       id="path1-8-2-6"
       cx="28.847836"
       cy="74.314125"
       r="2.8937349"
       inkscape:label="LED10" /><circle
       style="display:inline;fill:#ff00ff;fill-opacity:1;stroke-width:0.132291"
       id="path1-5-2-5"
       cx="21.97147"
       cy="82.565613"
       r="2.8937349"
       inkscape:label="LED11" /><circle
       style="display:inline;fill:#ff00ff;fill-opacity:1;stroke-width:0.132291"
       id="path1-8-5-1-0"
       cx="28.847836"
       cy="82.565613"
       r="2.8937349"
       inkscape:label="LED12" /><circle
       style="display:inline;fill:#ff00ff;fill-opacity:1;stroke-width:0.132291"
       id="path1-1-6-9"
       cx="21.971466"
       cy="90.817108"
       r="2.8937349"
       inkscape:label="LED13" /><circle
       style="display:inline;fill:#ff00ff;fill-opacity:1;stroke-width:0.132291"
       id="path1-8-52-8-0"
       cx="28.847836"
       cy="90.817108"
       r="2.8937349"
       inkscape:label="LED14" /><circle
       style="display:inline;fill:#ff00ff;fill-opacity:1;stroke-width:0.132291"
       id="path1-5-7-5-0"
       cx="21.971466"
       cy="99.068588"
       r="2.8937349"
       inkscape:label="LED15" /><circle
       style="display:inline;fill:#ff00ff;fill-opacity:1;stroke-width:0.132291"
       id="path1-8-5-6-7-6"
       cx="28.847836"
       cy="99.068588"
       r="2.8937349"
       inkscape:label="LED16" /><circle
       style="display:inline;fill:#ff0000;fill-opacity:1;stroke-width:0.132291"
       id="path1-9"
       cx="37.501068"
       cy="41.308167"
       r="2.8937349"
       inkscape:label="OFF1" /><circle
       style="display:inline;fill:#ff0000;fill-opacity:1;stroke-width:0.132291"
       id="path1-8-27"
       cx="44.377434"
       cy="41.308167"
       r="2.8937349"
       inkscape:label="OFF2" /><circle
       style="display:inline;fill:#ff0000;fill-opacity:1;stroke-width:0.132291"
       id="path1-5-9"
       cx="37.501068"
       cy="49.559654"
       r="2.8937349"
       inkscape:label="OFF3" /><circle
       style="display:inline;fill:#ff0000;fill-opacity:1;stroke-width:0.132291"
       id="path1-8-5-5"
       cx="44.377434"
       cy="49.559654"
       r="2.8937349"
       inkscape:label="OFF4" /><circle
       style="display:inline;fill:#ff0000;fill-opacity:1;stroke-width:0.132291"
       id="path1-1-4"
       cx="37.501068"
       cy="57.811146"
       r="2.8937349"
       inkscape:label="OFF5" /><circle
       style="display:inline;fill:#ff0000;fill-opacity:1;stroke-width:0.132291"
       id="path1-8-52-3"
       cx="44.377434"
       cy="57.811146"
       r="2.8937349"
       inkscape:label="OFF6" /><circle
       style="display:inline;fill:#ff0000;fill-opacity:1;stroke-width:0.132291"
       id="path1-5-7-1"
       cx="37.501068"
       cy="66.06263"
       r="2.8937349"
       inkscape:label="OFF7" /><circle
       style="display:inline;fill:#ff0000;fill-opacity:1;stroke-width:0.132291"
       id="path1-8-5-6-2"
       cx="44.377434"
       cy="66.06263"
       r="2.8937349"
       inkscape:label="OFF8" /><circle
       style="display:inline;fill:#ff0000;fill-opacity:1;stroke-width:0.132291"
       id="path1-3-3"
       cx="37.501068"
       cy="74.314125"
       r="2.8937349"
       inkscape:label="OFF9" /><circle
       style="display:inline;fill:#ff0000;fill-opacity:1;stroke-width:0.132291"
       id="path1-8-2-3"
       cx="44.377434"
       cy="74.314125"
       r="2.8937349"
       inkscape:label="OFF10" /><circle
       style="display:inline;fill:#ff0000;fill-opacity:1;stroke-width:0.132291"
       id="path1-5-2-4"
       cx="37.501068"
       cy="82.565613"
       r="2.8937349"
       inkscape:label="OFF11" /><circle
       style="display:inline;fill:#ff0000;fill-opacity:1;stroke-width:0.132291"
       id="path1-8-5-1-1"
       cx="44.377434"
       cy="82.565613"
       r="2.8937349"
       inkscape:label="OFF12" /><circle
       style="display:inline;fill:#ff0000;fill-opacity:1;stroke-width:0.132291"
       id="path1-1-6-1"
       cx="37.501068"
       cy="90.817108"
       r="2.8937349"
       inkscape:label="OFF13" /><circle
       style="display:inline;fill:#ff0000;fill-opacity:1;stroke-width:0.132291"
       id="path1-8-52-8-3"
       cx="44.377434"
       cy="90.817108"
       r="2.8937349"
       inkscape:label="OFF14" /><circle
       style="display:inline;fill:#ff0000;fill-opacity:1;stroke-width:0.132291"
       id="path1-5-7-5-8"
       cx="37.501068"
       cy="99.068588"
       r="2.8937349"
       inkscape:label="OFF15" /><circle
       style="display:inline;fill:#ff0000;fill-opacity:1;stroke-width:0.132291"
       id="path1-8-5-6-7-7"
       cx="44.377434"
       cy="99.068588"
       r="2.8937349"
       inkscape:label="OFF16" /><circle
       style="display:inline;fill:#0000ff;fill-opacity:1;stroke-width:0.264583"
       id="path2"
       cx="40.394802"
       cy="111.74258"
       r="4.9471302"
       inkscape:label="OUT" /><circle
       style="display:inline;fill:#00ff00;fill-opacity:1;stroke-width:0.264583"
       id="path2-7"
       cx="10.424498"
       cy="111.74258"
       r="4.9471302"
       inkscape:label="IN" /></g></svg>
